<svg xmlns="http://www.w3.org/2000/svg" xmlns:xlink="http://www.w3.org/1999/xlink" width="500" zoomAndPan="magnify" viewBox="0 0 375 374.999991" height="500" preserveAspectRatio="xMidYMid meet" version="1.0"><defs><clipPath id="2a0109603d"><path d="M 30 76 L 169 76 L 169 224 L 30 224 Z M 30 76 " clip-rule="nonzero"/></clipPath><clipPath id="e920349dc0"><path d="M 0.875 146.40625 L 117.816406 53.023438 L 198.039062 153.484375 L 81.097656 246.867188 Z M 0.875 146.40625 " clip-rule="nonzero"/></clipPath><clipPath id="1e43e88579"><path d="M 157.886719 103.285156 L 168.773438 176.855469 L 110.324219 223.53125 L 40.988281 196.636719 L 30.101562 123.070312 L 88.550781 76.394531 Z M 157.886719 103.285156 " clip-rule="nonzero"/></clipPath><clipPath id="1aafee06ce"><path d="M 172 83 L 284 83 L 284 202 L 172 202 Z M 172 83 " clip-rule="nonzero"/></clipPath><clipPath id="3190ab4c24"><path d="M 148.707031 139.40625 L 242.902344 64.1875 L 307.519531 145.105469 L 213.324219 220.328125 Z M 148.707031 139.40625 " clip-rule="nonzero"/></clipPath><clipPath id="60aec3b28d"><path d="M 275.175781 104.675781 L 283.945312 163.933594 L 236.867188 201.527344 L 181.015625 179.867188 L 172.246094 120.609375 L 219.328125 83.011719 Z M 275.175781 104.675781 " clip-rule="nonzero"/></clipPath><clipPath id="118402fb89"><path d="M 120 187 L 241 187 L 241 316 L 120 316 Z M 120 187 " clip-rule="nonzero"/></clipPath><clipPath id="61a402a203"><path d="M 95.125 248.457031 L 196.480469 167.519531 L 266.011719 254.589844 L 164.65625 335.527344 Z M 95.125 248.457031 " clip-rule="nonzero"/></clipPath><clipPath id="4dc70285b9"><path d="M 231.210938 211.082031 L 240.644531 274.847656 L 189.984375 315.300781 L 129.890625 291.992188 L 120.453125 228.230469 L 171.113281 187.777344 Z M 231.210938 211.082031 " clip-rule="nonzero"/></clipPath><clipPath id="23b7a2b044"><path d="M 240 176 L 343 176 L 343 285 L 240 285 Z M 240 176 " clip-rule="nonzero"/></clipPath><clipPath id="4fd20ebb31"><path d="M 219.550781 227.683594 L 305.324219 159.191406 L 364.160156 232.871094 L 278.390625 301.363281 Z M 219.550781 227.683594 " clip-rule="nonzero"/></clipPath><clipPath id="06a1a55673"><path d="M 334.710938 196.054688 L 342.695312 250.011719 L 299.828125 284.246094 L 248.972656 264.523438 L 240.988281 210.566406 L 283.855469 176.332031 Z M 334.710938 196.054688 " clip-rule="nonzero"/></clipPath></defs><g clip-path="url(#2a0109603d)"><g clip-path="url(#e920349dc0)"><g clip-path="url(#1e43e88579)"><path fill="#ffe72e" d="M 0.875 146.40625 L 117.816406 53.023438 L 198.039062 153.484375 L 81.097656 246.867188 Z M 0.875 146.40625 " fill-opacity="1" fill-rule="nonzero"/></g></g></g><g clip-path="url(#1aafee06ce)"><g clip-path="url(#3190ab4c24)"><g clip-path="url(#60aec3b28d)"><path fill="#f9a825" d="M 148.707031 139.40625 L 242.902344 64.1875 L 307.519531 145.105469 L 213.324219 220.328125 Z M 148.707031 139.40625 " fill-opacity="1" fill-rule="nonzero"/></g></g></g><g clip-path="url(#118402fb89)"><g clip-path="url(#61a402a203)"><g clip-path="url(#4dc70285b9)"><path fill="#039be5" d="M 95.125 248.457031 L 196.480469 167.519531 L 266.011719 254.589844 L 164.65625 335.527344 Z M 95.125 248.457031 " fill-opacity="1" fill-rule="nonzero"/></g></g></g><g clip-path="url(#23b7a2b044)"><g clip-path="url(#4fd20ebb31)"><g clip-path="url(#06a1a55673)"><path fill="#fff176" d="M 219.550781 227.683594 L 305.324219 159.191406 L 364.160156 232.871094 L 278.390625 301.363281 Z M 219.550781 227.683594 " fill-opacity="1" fill-rule="nonzero"/></g></g></g></svg>